<svg version="1.1" xmlns="http://www.w3.org/2000/svg" xmlns:xlink="http://www.w3.org/1999/xlink" width="109.31311" height="28.80211" viewBox="0,0,109.31311,28.80211"><defs><linearGradient x1="184.96884" y1="178.99825" x2="294.28075" y2="178.99825" gradientUnits="userSpaceOnUse" id="color-1"><stop offset="0.012" stop-color="#66b3e3"/><stop offset="1" stop-color="#1c75bc"/></linearGradient></defs><g transform="translate(-184.96776,-164.38281)"><g data-paper-data="{&quot;isPaintingLayer&quot;:true}" fill-rule="nonzero" stroke="none" stroke-width="1" stroke-linecap="butt" stroke-linejoin="miter" stroke-miterlimit="10" stroke-dasharray="" stroke-dashoffset="0" style="mix-blend-mode: normal"><path d="M294.28087,188.71912c0,2.46618 -4.62954,4.4658 -10.33658,4.4658h-88.64115c-5.70824,0 -10.33538,-2.00014 -10.33538,-4.4658v-19.44245c0,-2.46618 4.62714,-4.46528 10.33538,-4.46528h88.63995c5.71064,0 10.33658,1.9991 10.33658,4.46528v19.44245z" fill="url(#color-1)"/><path d="M290.17867,169.27666v19.44194c0,1.48531 -2.79526,2.69349 -6.23558,2.69349h-88.63995c-3.43672,0 -6.23438,-1.20818 -6.23438,-2.69349v-19.44245c0,-1.48531 2.79766,-2.69349 6.23438,-2.69349h88.63995c3.44033,0 6.23558,1.2087 6.23558,2.69401z" fill="#27aae1"/><text transform="translate(194.24002,186) scale(0.5,0.5)" font-size="40" xml:space="preserve" fill="#000000" fill-rule="nonzero" stroke="none" stroke-width="1" stroke-linecap="butt" stroke-linejoin="miter" stroke-miterlimit="10" stroke-dasharray="" stroke-dashoffset="0" font-family="Sans Serif" font-weight="normal" text-anchor="start" style="mix-blend-mode: normal"><tspan x="0" dy="0">clear tiles</tspan></text></g></g></svg>