<svg version="1.1" xmlns="http://www.w3.org/2000/svg" xmlns:xlink="http://www.w3.org/1999/xlink" width="40.01324" height="47.11553" viewBox="0,0,40.01324,47.11553"><g transform="translate(-219.50161,-154.88727)"><g data-paper-data="{&quot;isPaintingLayer&quot;:true}" fill-rule="nonzero" stroke="none" stroke-width="0" stroke-linecap="butt" stroke-linejoin="miter" stroke-miterlimit="10" stroke-dasharray="" stroke-dashoffset="0" style="mix-blend-mode: normal"><path d="M220.48515,202.0028v-47.11553h39.0297v47.11553z" fill="#fecc0e"/><g fill="#000000"><path d="M219.67073,168.58786l0.35617,-4.77283c0,0 12.89131,-3.08874 19.32075,-3.08874c6.56201,0 19.81721,3.08874 19.81721,3.08874l0.20067,4.94198c0,0 -13.56951,-3.55205 -20.13152,-3.55205c-6.42943,0 -19.56326,3.3829 -19.56326,3.3829z"/><path d="M220.06529,183.38094l-0.56368,-4.4972c0,0 4.45346,-1.92301 9.50338,-3.2795c3.70872,-0.99623 7.73917,-1.53893 10.5635,-1.53893c2.84435,0 7.01092,0.56495 10.71374,1.57722c4.93149,1.34816 9.12766,3.24122 9.12766,3.24122l-0.11514,4.64587c0,0 -4.76504,-1.97961 -10.00112,-3.42089c-3.39853,-0.93548 -7.1072,-1.61669 -9.72514,-1.61669c-2.69909,0 -6.4192,0.62397 -9.88721,1.47261c-5.07825,1.24268 -9.61599,3.41631 -9.61599,3.41631z"/><path d="M227.80416,199.08961l-1.5948,-2.38571c0,0 2.38095,-3.2044 5.45435,-5.49043c2.47577,-1.8415 5.48001,-2.86151 7.44346,-2.86151c1.88424,0 4.85062,1.02917 7.37856,2.76581c3.41533,2.34625 6.21643,5.58614 6.21643,5.58614l-1.91651,2.4092c0,0 -2.27219,-2.8819 -5.23917,-4.98824c-2.07276,-1.47151 -4.60005,-2.0788 -6.43932,-2.0788c-1.81133,0 -4.31859,0.44675 -6.36633,1.90695c-2.87661,2.05124 -5.06591,5.32069 -5.06591,5.32069z"/></g></g></g></svg>