<svg version="1.1" xmlns="http://www.w3.org/2000/svg" xmlns:xlink="http://www.w3.org/1999/xlink" width="39.07736" height="46.99414" viewBox="0,0,39.07736,46.99414"><g transform="translate(-220.5625,-153.56365)"><g data-paper-data="{&quot;isPaintingLayer&quot;:true}" fill-rule="nonzero" stroke-linecap="butt" stroke-linejoin="miter" stroke-miterlimit="10" stroke-dasharray="" stroke-dashoffset="0" style="mix-blend-mode: normal"><path d="M220.61015,200.55779c0,0 0,-35.09662 0,-40.95064c0,-1.44799 2.4228,-5.75463 8.82735,-5.91658c7.28574,-0.18423 12.46594,-0.14685 20.6326,-0.02151c5.82477,0.0894 9.56976,2.73739 9.56976,5.44465c0,7.40036 0,41.44407 0,41.44407z" fill="#fecc0e" stroke="none" stroke-width="0"/><path d="M220.5625,166.0625v-5.875h38.875v5.875z" fill="#000000" stroke="none" stroke-width="0"/><path d="M220.5625,177.31252v-5.875h38.875v5.875z" fill="#000000" stroke="none" stroke-width="0"/><path d="M220.5625,188.56252v-5.875h38.875v5.875z" fill="#000000" stroke="none" stroke-width="0"/><g data-paper-data="{&quot;index&quot;:null}"><path d="M230.33284,154.23213c3.60488,0.14989 6.37956,1.81763 6.19742,3.72499c-0.18213,1.90736 -3.25213,3.33209 -6.85702,3.18221c-3.60488,-0.14989 -6.37957,-1.81763 -6.19743,-3.725c0.18213,-1.90736 3.25214,-3.33209 6.85703,-3.18219z" fill="#ffcd18" stroke="#000000" stroke-width="0.5"/><path d="M229.45893,154.13694c3.50133,-0.07873 6.57636,1.12031 6.86828,2.67812c0.29193,1.55781 -2.3098,2.88448 -5.81111,2.96322c-3.50133,0.07873 -6.57636,-1.12031 -6.86829,-2.67812c-0.29193,-1.55781 2.3098,-2.88448 5.81112,-2.96321z" fill="#ffffff" stroke="#000000" stroke-width="0.5"/><path d="M230.54163,157.75286c-1.03664,-0.27571 -1.61366,-1.21252 -1.28883,-2.0924c0.32483,-0.87989 1.42852,-1.36966 2.46515,-1.09395c1.03664,0.27571 1.61366,1.21252 1.28883,2.0924c-0.32483,0.87989 -1.42851,1.36966 -2.46515,1.09395z" fill="#000000" stroke="none" stroke-width="0"/></g><g data-paper-data="{&quot;index&quot;:null}"><path d="M256.65526,157.53121c0.18214,1.97532 -2.59254,3.7025 -6.19742,3.85772c-3.60489,0.15523 -6.67489,-1.32027 -6.85702,-3.29558c-0.18213,-1.97531 2.59255,-3.70249 6.19743,-3.85771c3.60489,-0.15524 6.67489,1.32026 6.85702,3.29557z" fill="#ffcd18" stroke="#000000" stroke-width="0.5"/><path d="M256.48326,157.20586c-0.29192,1.61331 -3.36696,2.85507 -6.86829,2.77354c-3.50132,-0.08153 -6.10305,-1.45547 -5.81111,-3.06878c0.29191,-1.61331 3.36695,-2.85506 6.86828,-2.77353c3.50133,0.08153 6.10306,1.45546 5.81113,3.06878z" fill="#ffffff" stroke="#000000" stroke-width="0.5"/><path d="M247.12429,156.74889c-0.32483,-0.91123 0.25219,-1.88141 1.28883,-2.16695c1.03663,-0.28554 2.14031,0.22168 2.46515,1.13293c0.32483,0.91123 -0.25219,1.88141 -1.28883,2.16694c-1.03664,0.28555 -2.14031,-0.22168 -2.46514,-1.13292z" fill="#000000" stroke="none" stroke-width="0"/></g></g></g></svg>