<svg version="1.1" xmlns="http://www.w3.org/2000/svg" xmlns:xlink="http://www.w3.org/1999/xlink" width="56.49718" height="48.33042" viewBox="0,0,56.49718,48.33042"><g transform="translate(-211.75141,-155.83479)"><g data-paper-data="{&quot;isPaintingLayer&quot;:true}" fill-rule="nonzero" stroke-linejoin="miter" stroke-miterlimit="10" stroke-dasharray="" stroke-dashoffset="0" style="mix-blend-mode: normal"><path d="M237.36726,155.83479c17.05528,0 30.88133,10.81913 30.88133,24.16521c0,13.34606 -13.82605,24.16521 -30.88133,24.16521c-17.05528,0 -25.61585,-10.96603 -25.61585,-24.3121c0,-13.34606 8.56056,-24.01831 25.61585,-24.01831z" fill="#fecc0e" stroke="none" stroke-width="0" stroke-linecap="butt"/><path d="M241.09244,156.19273l4.03111,0.42857c0,0 2.60873,15.51207 2.60873,23.24858c0,7.89604 -2.60873,23.65886 -2.60873,23.65886l-4.17397,0.42857c0,0 3.00004,-16.32814 3.00004,-24.22418c0,-7.73651 -2.85718,-23.5404 -2.85718,-23.5404z" fill="#000000" stroke="none" stroke-width="0" stroke-linecap="butt"/><path d="M229.37577,156.66751l3.79831,-0.67827c0,0 1.62416,5.35883 2.76985,11.43538c0.84141,4.46269 1.29977,9.31251 1.29977,12.71102c0,3.42259 -0.47715,8.43621 -1.33211,12.89181c-1.13865,5.93404 -2.73752,10.98328 -2.73752,10.98328l-4.05521,-0.69987c0,0 1.8033,-5.17243 3.0206,-11.47298c0.7901,-4.08943 0.89896,-8.55207 0.89896,-11.70222c0,-3.2478 -0.06051,-7.7242 -0.77727,-11.89725c-1.04956,-6.11064 -2.8854,-11.57089 -2.8854,-11.57089z" fill="#000000" stroke="none" stroke-width="0" stroke-linecap="butt"/><path d="M215.17533,165.82416l2.17046,-1.76351c0,0 2.70642,2.86499 4.63719,6.56319c1.55532,2.97908 2.41682,6.59408 2.41682,8.95669c0,2.2673 -0.86923,5.83673 -2.33599,8.87859c-1.98163,4.10965 -4.71802,7.4802 -4.71802,7.4802l-2.0348,-2.30612c0,0 2.43404,-2.73412 4.21304,-6.30427c1.24283,-2.49415 1.75574,-5.53522 1.75574,-7.74841c0,-2.17957 -0.37732,-5.19654 -1.6106,-7.66058c-1.73247,-3.46142 -4.49383,-6.09579 -4.49383,-6.09579z" fill="#000000" stroke="none" stroke-width="0" stroke-linecap="butt"/><path d="M229.21552,179.99999c0,1.83553 -2.45975,3.32352 -5.49399,3.32352c-3.03424,0 -5.49399,-1.48799 -5.49399,-3.32352c0,-1.83553 2.45975,-3.32352 5.49399,-3.32352c3.03424,0 5.49399,1.48799 5.49399,3.32352z" fill="#ff9300" stroke="none" stroke-width="0" stroke-linecap="butt"/><path d="M234.7095,173.14947c-1.83553,0 -3.32352,-2.45975 -3.32352,-5.49399c0,-3.03424 1.48799,-5.49399 3.32352,-5.49399c1.83553,0 3.32352,2.45975 3.32352,5.49399c0,3.03424 -1.48799,5.49399 -3.32352,5.49399z" fill="#ff9300" stroke="none" stroke-width="0" stroke-linecap="butt"/><path d="M251.5984,179.99999c0,1.83553 -2.45974,3.32352 -5.49398,3.32352c-3.03424,0 -5.49399,-1.48799 -5.49399,-3.32352c0,-1.83553 2.45975,-3.32352 5.49399,-3.32352c3.03424,0 5.49398,1.48799 5.49398,3.32352z" fill="#ff9300" stroke="none" stroke-width="0" stroke-linecap="butt"/><path d="M234.7095,175.31993c2.58472,0 4.68006,2.09534 4.68006,4.68006c0,2.58472 -2.09534,4.68006 -4.68006,4.68006c-2.58472,0 -4.68006,-2.09534 -4.68006,-4.68006c0,-2.58472 2.09534,-4.68006 4.68006,-4.68006z" fill="#6ec038" stroke="none" stroke-width="0" stroke-linecap="butt"/><path d="M234.7095,197.70283c-1.83553,0 -3.32352,-2.45974 -3.32352,-5.49398c0,-3.03424 1.48799,-5.49399 3.32352,-5.49399c1.83553,0 3.32352,2.45975 3.32352,5.49399c0,3.03424 -1.48799,5.49398 -3.32352,5.49398z" fill="#ff9300" stroke="none" stroke-width="0" stroke-linecap="butt"/><path d="M261.29766,168.53723c0,0 1.89865,2.15967 3.0452,4.95234c0.8397,2.04529 1.02442,4.55587 1.02442,6.1763c0,1.63694 -0.07347,3.91027 -0.93077,6.12528c-1.13739,2.93869 -3.13885,5.6716 -3.13885,5.6716" fill="none" stroke="#000000" stroke-width="0.5" stroke-linecap="round"/><g stroke-linecap="butt"><path d="M252.52081,194.42973c-2.19879,-0.49813 -3.24405,-3.73338 -2.33465,-7.22614c0.90941,-3.49275 3.42911,-5.92039 5.62792,-5.42226c2.19879,0.49813 3.24406,3.73338 2.33465,7.22613c-0.90941,3.49275 -3.42912,5.9204 -5.62792,5.42227z" fill="#ffcd18" stroke="#000000" stroke-width="0.5"/><path d="M252.92544,194.37626c-1.66406,-0.82737 -2.09257,-4.18411 -0.95712,-7.49751c1.13546,-3.3134 3.40492,-5.32872 5.06898,-4.50135c1.66406,0.82737 2.09257,4.18411 0.95712,7.4975c-1.13546,3.3134 -3.40492,5.32872 -5.06898,4.50136z" fill="#ffffff" stroke="#000000" stroke-width="0.5"/><path d="M256.22,185.60094c1.08634,0 1.96698,0.88064 1.96698,1.96698c0,1.08634 -0.88065,1.96698 -1.96698,1.96698c-1.08634,0 -1.96698,-0.88065 -1.96698,-1.96698c0,-1.08634 0.88065,-1.96698 1.96698,-1.96698z" fill="#000000" stroke="none" stroke-width="0"/></g><g data-paper-data="{&quot;index&quot;:null}" stroke-linecap="butt"><path d="M258.14873,170.99253c0.90941,3.49275 -0.13586,6.728 -2.33465,7.22613c-2.19879,0.49813 -4.71851,-1.9295 -5.62792,-5.42226c-0.90941,-3.49275 0.13586,-6.72801 2.33466,-7.22614c2.19879,-0.49813 4.71851,1.92951 5.62791,5.42227z" fill="#ffcd18" stroke="#000000" stroke-width="0.5"/><path d="M257.99442,170.12508c1.13546,3.3134 0.70694,6.67015 -0.95712,7.4975c-1.66406,0.82737 -3.93352,-1.18796 -5.06898,-4.50135c-1.13546,-3.3134 -0.70694,-6.67015 0.95712,-7.49751c1.66406,-0.82737 3.93352,1.18796 5.06898,4.50136z" fill="#ffffff" stroke="#000000" stroke-width="0.5"/><path d="M254.25302,172.43207c0,-1.08634 0.88065,-1.96698 1.96698,-1.96698c1.08634,0 1.96698,0.88065 1.96698,1.96698c0,1.08634 -0.88065,1.96698 -1.96698,1.96698c-1.08634,0 -1.96698,-0.88064 -1.96698,-1.96698z" fill="#000000" stroke="none" stroke-width="0"/></g><text transform="translate(232.57286,175.46649) rotate(90) scale(0.14992,0.14992)" font-size="40" xml:space="preserve" fill="#ffffff" fill-rule="nonzero" stroke="none" stroke-width="1" stroke-linecap="butt" stroke-linejoin="miter" stroke-miterlimit="10" stroke-dasharray="" stroke-dashoffset="0" font-family="Sans Serif" font-weight="normal" text-anchor="start" style="mix-blend-mode: normal"><tspan x="0" dy="0">GO</tspan></text><g><path d="M233.51002,189.16164c0,0 1.02993,1.43173 1.22088,2.57743c0.21349,1.28094 0,2.84873 0,2.84873" fill="none" stroke="#ffffff" stroke-width="1.5" stroke-linecap="round"/><path d="M233.10306,193.23126l3.39135,0l-1.7635,3.2557z" fill="#ffffff" stroke="none" stroke-width="0" stroke-linecap="butt"/></g><g data-paper-data="{&quot;index&quot;:null}"><path d="M234.86656,165.1509c0,0 0.21349,1.56779 0,2.84873c-0.19095,1.14571 -1.22089,2.57743 -1.22089,2.57743" fill="none" stroke="#ffffff" stroke-width="1.5" stroke-linecap="round"/><path d="M234.86656,163.25174l1.7635,3.2557l-3.39135,0z" fill="#ffffff" stroke="none" stroke-width="0" stroke-linecap="butt"/></g><g data-paper-data="{&quot;index&quot;:null}"><path d="M242.66667,180.14066l5.69746,0" fill="none" stroke="#ffffff" stroke-width="1.5" stroke-linecap="round"/><path d="M250.26328,180.14066l-3.2557,1.7635l0,-3.39135z" fill="#ffffff" stroke="none" stroke-width="0" stroke-linecap="butt"/></g><path d="M221.369,180.005l5.69746,0" data-paper-data="{&quot;index&quot;:null}" fill="none" stroke="#ffffff" stroke-width="1.5" stroke-linecap="round"/><path d="M222.72553,178.24151l0,3.39135l-3.25569,-1.7635z" data-paper-data="{&quot;index&quot;:null}" fill="#ffffff" stroke="none" stroke-width="0" stroke-linecap="butt"/><path d="M224.07143,163.99675c0.8424,0 1.42857,1.045 1.42857,2c0,1.22363 0,4.41024 0,6.57143c0,1.24029 -0.83651,2.14286 -1.42857,2.14286c-0.48495,0 -1.44486,0 -2.28571,0c-0.84597,0 -1.57143,-0.96689 -1.57143,-2.28571c0,-2.30519 0,-5.6856 0,-6.85714c0,-0.38292 0.73374,-1.22191 1.30071,-1.54513c0.61386,-0.34997 2.08144,-0.0263 2.55644,-0.0263z" fill="#0033ff" stroke="none" stroke-width="NaN" stroke-linecap="butt"/><path d="M224.07143,185.42533c0.8424,0 1.42857,1.045 1.42857,2c0,1.22362 0,4.41023 0,6.57142c0,1.24029 -0.83651,2.14286 -1.42857,2.14286c-0.48495,0 -1.44487,0 -2.28572,0c-0.84597,0 -1.57143,-0.9669 -1.57143,-2.28572c0,-2.30519 0,-5.6856 0,-6.85715c0,-0.38292 0.73374,-1.2219 1.3007,-1.54513c0.61387,-0.34996 2.08144,-0.0263 2.55644,-0.0263z" fill="#0033ff" stroke="none" stroke-width="NaN" stroke-linecap="butt"/><g fill="none" stroke="#ffffff" stroke-width="1.5" stroke-linecap="round"><path d="M221.23682,192.59749l3.23507,-3.23507"/><path d="M224.59397,192.71957l-3.23506,-3.23507" data-paper-data="{&quot;index&quot;:null}"/></g><path d="M221.28112,168.26567l3.32277,0" fill="none" stroke="#ffffff" stroke-width="1.5" stroke-linecap="round"/><path d="M224.54969,170.48207l-3.32277,0" data-paper-data="{&quot;index&quot;:null}" fill="none" stroke="#ffffff" stroke-width="1.5" stroke-linecap="round"/></g></g></svg>