<svg version="1.1" xmlns="http://www.w3.org/2000/svg" xmlns:xlink="http://www.w3.org/1999/xlink" width="55.12627" height="27.25382" viewBox="0,0,55.12627,27.25382"><g transform="translate(-212.42323,-166.33129)"><g data-paper-data="{&quot;isPaintingLayer&quot;:true}" fill-rule="nonzero" stroke-linejoin="miter" stroke-miterlimit="10" stroke-dasharray="" stroke-dashoffset="0" style="mix-blend-mode: normal"><path d="M212.52066,173.726c0,-4.32659 5.36715,-7.33718 10.27206,-7.33718c6.28455,0 30.47525,-0.12943 35.5916,0c6.06339,0.15338 9.16518,4.29635 9.16518,7.33718c0,2.49072 0,8.49457 0,12.8132c0,4.34492 -5.42617,6.84383 -10.0523,6.84383c-4.93726,0 -33.35413,0.32161 -36.90574,0.15338c-3.47759,-0.16472 -7.88754,-2.18348 -8.08922,-6.68043c-0.18788,-4.18912 0.0183,-10.69033 0.0183,-13.12994z" fill="#0033ff" stroke="none" stroke-width="NaN" stroke-linecap="butt"/><g fill="none" stroke="#ffffff" stroke-width="4.5" stroke-linecap="round"><path d="M231.37879,172.0058l16.61541,16.61541"/><path d="M232.0058,187.99416l16.61541,-16.61537" data-paper-data="{&quot;index&quot;:null}"/></g></g></g></svg>