<svg version="1.1" xmlns="http://www.w3.org/2000/svg" xmlns:xlink="http://www.w3.org/1999/xlink" width="55.20054" height="27.14755" viewBox="0,0,55.20054,27.14755"><g transform="translate(-212.66408,-166.42622)"><g data-paper-data="{&quot;isPaintingLayer&quot;:true}" fill-rule="nonzero" stroke-linejoin="miter" stroke-miterlimit="10" stroke-dasharray="" stroke-dashoffset="0" style="mix-blend-mode: normal"><g><path d="M212.83573,173.7634c0,-4.32659 5.36715,-7.33718 10.27206,-7.33718c6.2846,0 22.65112,0 33.75105,0c6.37016,0 11.00578,4.29635 11.00578,7.33718c0,2.49072 0,7.42084 0,11.73947c0,4.34492 -4.96598,8.0709 -11.73947,8.0709c-11.83952,0 -29.20141,0 -35.21847,0c-1.96668,0 -7.87261,-2.57088 -7.93584,-7.07969c-0.59982,-3.55201 -0.13508,-10.29112 -0.13508,-12.73073z" fill="#0033ff" stroke="none" stroke-width="NaN" stroke-linecap="butt"/><path d="M234.76102,188.09451v-17.06584" fill="none" stroke="#ffffff" stroke-width="4.5" stroke-linecap="round"/><path d="M246.14452,171.30704v17.06584" data-paper-data="{&quot;index&quot;:null}" fill="none" stroke="#ffffff" stroke-width="4.5" stroke-linecap="round"/></g></g></g></svg>